<?xml version="1.0" encoding="UTF-8"?>
<svg xmlns="http://www.w3.org/2000/svg" xmlns:xlink="http://www.w3.org/1999/xlink" width="150pt" height="150pt" viewBox="0 0 150 150" version="1.1">
<g id="surface1">
<path style=" stroke:none;fill-rule:nonzero;fill:rgb(96.078431%,61.960784%,4.313725%);fill-opacity:1;" d="M 88.140625 49.40625 C 87.277344 49.777344 86.71875 50.625 86.71875 51.5625 L 86.71875 112.5 C 86.71875 113.289062 87.113281 114.023438 87.773438 114.453125 C 88.429688 114.890625 89.257812 114.964844 89.984375 114.65625 C 89.984375 114.65625 107.902344 106.972656 117.257812 102.964844 C 121.480469 101.15625 124.21875 97.003906 124.21875 92.410156 C 124.21875 82.925781 124.21875 64.28125 124.21875 51.367188 C 124.21875 47.503906 122.277344 43.902344 119.058594 41.773438 C 115.832031 39.652344 111.753906 39.285156 108.207031 40.808594 C 98.984375 44.761719 88.140625 49.40625 88.140625 49.40625 Z M 91.40625 108.945312 L 115.410156 98.65625 C 117.910156 97.585938 119.53125 95.128906 119.53125 92.410156 C 119.53125 82.925781 119.53125 64.28125 119.53125 51.367188 C 119.53125 49.078125 118.382812 46.945312 116.476562 45.6875 C 114.566406 44.433594 112.152344 44.21875 110.054688 45.117188 L 91.40625 53.109375 Z M 91.40625 108.945312 "/>
<path style=" stroke:none;fill-rule:nonzero;fill:rgb(96.078431%,61.960784%,4.313725%);fill-opacity:1;" d="M 60.980469 35.15625 L 61.007812 35.15625 L 61.128906 35.164062 C 61.175781 35.164062 61.21875 35.175781 61.265625 35.179688 L 61.382812 35.199219 L 61.421875 35.207031 L 61.503906 35.226562 L 61.566406 35.242188 L 61.632812 35.257812 L 61.707031 35.289062 L 61.75 35.300781 L 61.847656 35.339844 L 61.855469 35.34375 C 61.898438 35.363281 61.945312 35.382812 61.988281 35.40625 L 90.113281 49.46875 C 90.15625 49.492188 90.203125 49.515625 90.242188 49.539062 L 90.320312 49.585938 L 90.398438 49.636719 C 90.441406 49.667969 90.484375 49.695312 90.523438 49.730469 L 90.601562 49.796875 L 90.65625 49.84375 C 90.730469 49.914062 90.800781 49.988281 90.863281 50.0625 L 90.914062 50.128906 L 90.96875 50.203125 C 91 50.242188 91.027344 50.28125 91.050781 50.324219 L 91.101562 50.410156 L 91.132812 50.46875 L 91.15625 50.507812 L 91.203125 50.617188 L 91.246094 50.714844 L 91.265625 50.761719 L 91.316406 50.914062 L 91.34375 51.039062 L 91.355469 51.074219 L 91.367188 51.148438 L 91.382812 51.234375 L 91.382812 51.25 C 91.390625 51.296875 91.398438 51.34375 91.402344 51.382812 L 91.40625 51.488281 L 91.40625 112.5 C 91.40625 113.3125 90.984375 114.066406 90.296875 114.492188 C 89.601562 114.917969 88.738281 114.960938 88.011719 114.59375 L 60.863281 101.019531 L 41.792969 109.191406 C 38.246094 110.714844 34.167969 110.347656 30.941406 108.226562 C 27.722656 106.097656 25.78125 102.496094 25.78125 98.632812 C 25.78125 85.71875 25.78125 67.074219 25.78125 57.589844 C 25.78125 52.996094 28.519531 48.84375 32.742188 47.035156 C 42.097656 43.027344 60.015625 35.34375 60.015625 35.34375 L 60.109375 35.304688 L 60.136719 35.296875 L 60.253906 35.257812 C 60.300781 35.246094 60.34375 35.230469 60.390625 35.222656 L 60.5 35.199219 L 60.539062 35.1875 L 60.628906 35.175781 L 60.683594 35.171875 L 60.753906 35.164062 L 60.835938 35.160156 L 60.882812 35.15625 Z M 63.28125 96.988281 L 86.71875 108.707031 L 86.71875 53.011719 L 63.28125 41.292969 Z M 58.59375 41.054688 L 34.589844 51.34375 C 32.089844 52.414062 30.46875 54.871094 30.46875 57.589844 C 30.46875 67.074219 30.46875 85.71875 30.46875 98.632812 C 30.46875 100.921875 31.617188 103.054688 33.523438 104.3125 C 35.433594 105.566406 37.847656 105.78125 39.945312 104.882812 L 58.59375 96.890625 Z M 58.59375 41.054688 "/>
</g>
</svg>
